<svg id="visual" viewBox="0 0 900 450" width="900" height="450" xmlns="http://www.w3.org/2000/svg" xmlns:xlink="http://www.w3.org/1999/xlink" version="1.1"><rect x="0" y="0" width="900" height="450" fill="#131515"></rect><path d="M0 60L9.3 63.3C18.7 66.7 37.3 73.3 56.2 79.5C75 85.7 94 91.3 112.8 94.5C131.7 97.7 150.3 98.3 169 94.5C187.7 90.7 206.3 82.3 225 75C243.7 67.7 262.3 61.3 281.2 58.2C300 55 319 55 337.8 56.5C356.7 58 375.3 61 394 63.2C412.7 65.3 431.3 66.7 450 70C468.7 73.3 487.3 78.7 506.2 76.8C525 75 544 66 562.8 60.7C581.7 55.3 600.3 53.7 619 60.5C637.7 67.3 656.3 82.7 675 84C693.7 85.3 712.3 72.7 731.2 71.5C750 70.3 769 80.7 787.8 76.8C806.7 73 825.3 55 844 48C862.7 41 881.3 45 890.7 47L900 49L900 0L890.7 0C881.3 0 862.7 0 844 0C825.3 0 806.7 0 787.8 0C769 0 750 0 731.2 0C712.3 0 693.7 0 675 0C656.3 0 637.7 0 619 0C600.3 0 581.7 0 562.8 0C544 0 525 0 506.2 0C487.3 0 468.7 0 450 0C431.3 0 412.7 0 394 0C375.3 0 356.7 0 337.8 0C319 0 300 0 281.2 0C262.3 0 243.7 0 225 0C206.3 0 187.7 0 169 0C150.3 0 131.7 0 112.8 0C94 0 75 0 56.2 0C37.3 0 18.7 0 9.3 0L0 0Z" fill="#6bd425" stroke-linecap="round" stroke-linejoin="miter"></path></svg>