<svg id="visual" viewBox="0 0 900 450" width="900" height="450" xmlns="http://www.w3.org/2000/svg" xmlns:xlink="http://www.w3.org/1999/xlink" version="1.1"><rect x="0" y="0" width="900" height="450" fill="None"></rect><path d="M0 323L13.7 321.5C27.3 320 54.7 317 82 325C109.3 333 136.7 352 163.8 360.8C191 369.7 218 368.3 245.2 363.5C272.3 358.7 299.7 350.3 327 348.7C354.3 347 381.7 352 409 353.8C436.3 355.7 463.7 354.3 491 347C518.3 339.7 545.7 326.3 573 332.7C600.3 339 627.7 365 654.8 374.8C682 384.7 709 378.3 736.2 373.5C763.3 368.7 790.7 365.3 818 355.3C845.3 345.3 872.7 328.7 886.3 320.3L900 312L900 451L886.3 451C872.7 451 845.3 451 818 451C790.7 451 763.3 451 736.2 451C709 451 682 451 654.8 451C627.7 451 600.3 451 573 451C545.7 451 518.3 451 491 451C463.7 451 436.3 451 409 451C381.7 451 354.3 451 327 451C299.7 451 272.3 451 245.2 451C218 451 191 451 163.8 451C136.7 451 109.3 451 82 451C54.7 451 27.3 451 13.7 451L0 451Z" fill="#6bd425" stroke-linecap="round" stroke-linejoin="miter"></path></svg>