<svg id="visual" viewBox="0 0 900 450" width="900" height="450" xmlns="http://www.w3.org/2000/svg" xmlns:xlink="http://www.w3.org/1999/xlink" version="1.1"><rect x="0" y="0" width="900" height="450" fill="#131515"></rect><path d="M0 80L10 80.7C20 81.3 40 82.7 60 85.7C80 88.7 100 93.3 120 97.8C140 102.3 160 106.7 180 105.7C200 104.7 220 98.3 240 96.3C260 94.3 280 96.7 300 98.3C320 100 340 101 360 99.3C380 97.7 400 93.3 420 88.8C440 84.3 460 79.7 480 80.5C500 81.3 520 87.7 540 86.8C560 86 580 78 600 75.2C620 72.3 640 74.7 660 73.8C680 73 700 69 720 68.8C740 68.7 760 72.3 780 72.8C800 73.3 820 70.7 840 71.2C860 71.7 880 75.3 890 77.2L900 79L900 0L890 0C880 0 860 0 840 0C820 0 800 0 780 0C760 0 740 0 720 0C700 0 680 0 660 0C640 0 620 0 600 0C580 0 560 0 540 0C520 0 500 0 480 0C460 0 440 0 420 0C400 0 380 0 360 0C340 0 320 0 300 0C280 0 260 0 240 0C220 0 200 0 180 0C160 0 140 0 120 0C100 0 80 0 60 0C40 0 20 0 10 0L0 0Z" fill="#131515"></path><path d="M0 96L10 90.5C20 85 40 74 60 68.8C80 63.7 100 64.3 120 71.2C140 78 160 91 180 97.5C200 104 220 104 240 100.7C260 97.3 280 90.7 300 87.5C320 84.3 340 84.7 360 82.7C380 80.7 400 76.3 420 72.8C440 69.3 460 66.7 480 66.2C500 65.7 520 67.3 540 73.5C560 79.7 580 90.3 600 94C620 97.7 640 94.3 660 88.5C680 82.7 700 74.3 720 74C740 73.7 760 81.3 780 80.5C800 79.7 820 70.3 840 65.7C860 61 880 61 890 61L900 61L900 0L890 0C880 0 860 0 840 0C820 0 800 0 780 0C760 0 740 0 720 0C700 0 680 0 660 0C640 0 620 0 600 0C580 0 560 0 540 0C520 0 500 0 480 0C460 0 440 0 420 0C400 0 380 0 360 0C340 0 320 0 300 0C280 0 260 0 240 0C220 0 200 0 180 0C160 0 140 0 120 0C100 0 80 0 60 0C40 0 20 0 10 0L0 0Z" fill="#0f322f"></path><path d="M0 77L10 77C20 77 40 77 60 78C80 79 100 81 120 77.5C140 74 160 65 180 58.8C200 52.7 220 49.3 240 49.2C260 49 280 52 300 52.8C320 53.7 340 52.3 360 56.3C380 60.3 400 69.7 420 71.7C440 73.7 460 68.3 480 68.5C500 68.7 520 74.3 540 75.3C560 76.3 580 72.7 600 67.5C620 62.3 640 55.7 660 56.8C680 58 700 67 720 71.2C740 75.3 760 74.7 780 71.2C800 67.7 820 61.3 840 60.7C860 60 880 65 890 67.5L900 70L900 0L890 0C880 0 860 0 840 0C820 0 800 0 780 0C760 0 740 0 720 0C700 0 680 0 660 0C640 0 620 0 600 0C580 0 560 0 540 0C520 0 500 0 480 0C460 0 440 0 420 0C400 0 380 0 360 0C340 0 320 0 300 0C280 0 260 0 240 0C220 0 200 0 180 0C160 0 140 0 120 0C100 0 80 0 60 0C40 0 20 0 10 0L0 0Z" fill="#005242"></path><path d="M0 73L10 67.3C20 61.7 40 50.3 60 48C80 45.7 100 52.3 120 54.5C140 56.7 160 54.3 180 51.3C200 48.3 220 44.7 240 43.3C260 42 280 43 300 47.7C320 52.3 340 60.7 360 64.2C380 67.7 400 66.3 420 61C440 55.7 460 46.3 480 42.2C500 38 520 39 540 43C560 47 580 54 600 59.2C620 64.3 640 67.7 660 67.2C680 66.7 700 62.3 720 60.8C740 59.3 760 60.7 780 58.3C800 56 820 50 840 48.7C860 47.3 880 50.7 890 52.3L900 54L900 0L890 0C880 0 860 0 840 0C820 0 800 0 780 0C760 0 740 0 720 0C700 0 680 0 660 0C640 0 620 0 600 0C580 0 560 0 540 0C520 0 500 0 480 0C460 0 440 0 420 0C400 0 380 0 360 0C340 0 320 0 300 0C280 0 260 0 240 0C220 0 200 0 180 0C160 0 140 0 120 0C100 0 80 0 60 0C40 0 20 0 10 0L0 0Z" fill="#00724d"></path><path d="M0 24L10 25.7C20 27.3 40 30.7 60 31C80 31.3 100 28.7 120 30.3C140 32 160 38 180 40.8C200 43.7 220 43.3 240 45C260 46.7 280 50.3 300 52C320 53.7 340 53.3 360 51.2C380 49 400 45 420 41.8C440 38.7 460 36.3 480 36C500 35.7 520 37.3 540 38.7C560 40 580 41 600 41C620 41 640 40 660 42.7C680 45.3 700 51.7 720 53.2C740 54.7 760 51.3 780 50.5C800 49.7 820 51.3 840 47.7C860 44 880 35 890 30.5L900 26L900 0L890 0C880 0 860 0 840 0C820 0 800 0 780 0C760 0 740 0 720 0C700 0 680 0 660 0C640 0 620 0 600 0C580 0 560 0 540 0C520 0 500 0 480 0C460 0 440 0 420 0C400 0 380 0 360 0C340 0 320 0 300 0C280 0 260 0 240 0C220 0 200 0 180 0C160 0 140 0 120 0C100 0 80 0 60 0C40 0 20 0 10 0L0 0Z" fill="#0c934e"></path><path d="M0 20L10 23.7C20 27.3 40 34.7 60 38C80 41.3 100 40.7 120 37.7C140 34.7 160 29.3 180 27.3C200 25.3 220 26.7 240 27.2C260 27.7 280 27.3 300 25.8C320 24.3 340 21.7 360 22.8C380 24 400 29 420 28.2C440 27.3 460 20.7 480 18.3C500 16 520 18 540 20C560 22 580 24 600 27.8C620 31.7 640 37.3 660 40C680 42.7 700 42.3 720 38.2C740 34 760 26 780 24.8C800 23.7 820 29.3 840 31C860 32.7 880 30.3 890 29.2L900 28L900 0L890 0C880 0 860 0 840 0C820 0 800 0 780 0C760 0 740 0 720 0C700 0 680 0 660 0C640 0 620 0 600 0C580 0 560 0 540 0C520 0 500 0 480 0C460 0 440 0 420 0C400 0 380 0 360 0C340 0 320 0 300 0C280 0 260 0 240 0C220 0 200 0 180 0C160 0 140 0 120 0C100 0 80 0 60 0C40 0 20 0 10 0L0 0Z" fill="#39b443"></path><path d="M0 12L10 12.2C20 12.3 40 12.7 60 11.7C80 10.7 100 8.3 120 7.2C140 6 160 6 180 8.8C200 11.7 220 17.3 240 17.2C260 17 280 11 300 11.5C320 12 340 19 360 22.2C380 25.3 400 24.7 420 24.7C440 24.7 460 25.3 480 22.5C500 19.7 520 13.3 540 10.5C560 7.7 580 8.3 600 11.5C620 14.7 640 20.3 660 21.8C680 23.3 700 20.7 720 19.2C740 17.7 760 17.3 780 17.7C800 18 820 19 840 17.7C860 16.3 880 12.7 890 10.8L900 9L900 0L890 0C880 0 860 0 840 0C820 0 800 0 780 0C760 0 740 0 720 0C700 0 680 0 660 0C640 0 620 0 600 0C580 0 560 0 540 0C520 0 500 0 480 0C460 0 440 0 420 0C400 0 380 0 360 0C340 0 320 0 300 0C280 0 260 0 240 0C220 0 200 0 180 0C160 0 140 0 120 0C100 0 80 0 60 0C40 0 20 0 10 0L0 0Z" fill="#6bd425"></path></svg>