<svg id="visual" viewBox="0 0 900 450" width="900" height="450" xmlns="http://www.w3.org/2000/svg" xmlns:xlink="http://www.w3.org/1999/xlink" version="1.1"><rect x="0" y="0" width="900" height="450" fill="#6BD425"></rect><path d="M0 244L56 228L113 222L169 253L225 238L281 229L338 215L394 252L450 244L506 232L563 246L619 230L675 229L731 252L788 248L844 222L900 249L900 451L844 451L788 451L731 451L675 451L619 451L563 451L506 451L450 451L394 451L338 451L281 451L225 451L169 451L113 451L56 451L0 451Z" fill="#686864"></path><path d="M0 269L56 254L113 248L169 277L225 247L281 250L338 261L394 259L450 244L506 271L563 251L619 253L675 274L731 274L788 260L844 258L900 254L900 451L844 451L788 451L731 451L675 451L619 451L563 451L506 451L450 451L394 451L338 451L281 451L225 451L169 451L113 451L56 451L0 451Z" fill="#585956"></path><path d="M0 308L56 289L113 281L169 293L225 303L281 306L338 276L394 293L450 305L506 305L563 283L619 292L675 298L731 283L788 305L844 281L900 297L900 451L844 451L788 451L731 451L675 451L619 451L563 451L506 451L450 451L394 451L338 451L281 451L225 451L169 451L113 451L56 451L0 451Z" fill="#484a48"></path><path d="M0 341L56 310L113 329L169 322L225 320L281 327L338 311L394 313L450 311L506 324L563 324L619 338L675 312L731 340L788 325L844 314L900 333L900 451L844 451L788 451L731 451L675 451L619 451L563 451L506 451L450 451L394 451L338 451L281 451L225 451L169 451L113 451L56 451L0 451Z" fill="#3a3c3b"></path><path d="M0 362L56 355L113 347L169 354L225 364L281 346L338 356L394 358L450 345L506 347L563 351L619 361L675 348L731 359L788 364L844 365L900 368L900 451L844 451L788 451L731 451L675 451L619 451L563 451L506 451L450 451L394 451L338 451L281 451L225 451L169 451L113 451L56 451L0 451Z" fill="#2c2e2e"></path><path d="M0 391L56 395L113 397L169 371L225 385L281 388L338 392L394 374L450 374L506 372L563 381L619 388L675 377L731 379L788 392L844 390L900 379L900 451L844 451L788 451L731 451L675 451L619 451L563 451L506 451L450 451L394 451L338 451L281 451L225 451L169 451L113 451L56 451L0 451Z" fill="#202121"></path><path d="M0 419L56 427L113 414L169 406L225 425L281 421L338 419L394 406L450 409L506 420L563 408L619 425L675 424L731 418L788 424L844 414L900 411L900 451L844 451L788 451L731 451L675 451L619 451L563 451L506 451L450 451L394 451L338 451L281 451L225 451L169 451L113 451L56 451L0 451Z" fill="#131515"></path></svg>