<svg id="visual" viewBox="0 0 900 450" width="900" height="450" xmlns="http://www.w3.org/2000/svg" xmlns:xlink="http://www.w3.org/1999/xlink" version="1.1"><path d="M0 386L18.8 389.3C37.7 392.7 75.3 399.3 112.8 405C150.3 410.7 187.7 415.3 225.2 411.8C262.7 408.3 300.3 396.7 337.8 396.7C375.3 396.7 412.7 408.3 450.2 413.7C487.7 419 525.3 418 562.8 415.7C600.3 413.3 637.7 409.7 675.2 408.8C712.7 408 750.3 410 787.8 408.2C825.3 406.3 862.7 400.7 881.3 397.8L900 395L900 451L881.3 451C862.7 451 825.3 451 787.8 451C750.3 451 712.7 451 675.2 451C637.7 451 600.3 451 562.8 451C525.3 451 487.7 451 450.2 451C412.7 451 375.3 451 337.8 451C300.3 451 262.7 451 225.2 451C187.7 451 150.3 451 112.8 451C75.3 451 37.7 451 18.8 451L0 451Z" fill="#6bd425" stroke-linecap="round" stroke-linejoin="miter"></path></svg>